<?xml version="1.0" encoding="utf-8"?>
<!-- Generator: Adobe Illustrator 22.1.0, SVG Export Plug-In . SVG Version: 6.00 Build 0)  -->
<svg version="1.1" xmlns="http://www.w3.org/2000/svg" xmlns:xlink="http://www.w3.org/1999/xlink" x="0px" y="0px"
	 viewBox="0 0 22 22" style="enable-background:new 0 0 22 22;" xml:space="preserve">
<style type="text/css">
	.st0{display:none;}
	.st1{display:inline;opacity:0.25;fill:#FFFFFF;enable-background:new    ;}
	.st2{display:inline;}
	.st3{fill:#FFFFFF;}
	.st4{fill:#006837;}
	.st5{display:inline;opacity:0.5;}
	.st6{fill:#FBB03B;}
	.st7{fill:#FFAAC1;}
	.st8{opacity:0.4;}
	.st9{opacity:0.4;fill:#D40059;}
	.st10{fill:#5F3500;}
	.st11{fill:#00BD45;}
	.st12{fill:#007F20;}
</style>
<g id="Layer_1">
	<g id="Layer_4" class="st0">
		<circle class="st1" cx="11" cy="11" r="9"/>
	</g>
	<g id="Layer_1_1_" class="st0">
		<g class="st2">
			<circle class="st3" cx="11" cy="11" r="10.5"/>
			<path class="st4" d="M11,1c5.5,0,10,4.5,10,10s-4.5,10-10,10S1,16.5,1,11S5.5,1,11,1 M11,0C4.9,0,0,4.9,0,11s4.9,11,11,11
				s11-4.9,11-11S17.1,0,11,0L11,0z"/>
		</g>
	</g>
	<g id="Layer_1_copy" class="st0">
		<g class="st5">
			<circle class="st3" cx="11" cy="11" r="9.5"/>
			<path class="st4" d="M11,2c5,0,9,4,9,9s-4,9-9,9s-9-4-9-9S6,2,11,2 M11,1C5.5,1,1,5.5,1,11s4.5,10,10,10s10-4.5,10-10
				S16.5,1,11,1L11,1z"/>
		</g>
	</g>
	<g id="Layer_3" class="st0">
		<g class="st2">
			<path class="st4" d="M9.6,8.2c0.6,0.7,0.9,1.7,0.9,2.9c0,0.8-0.1,1.5-0.4,2.1c-0.3,0.6-0.7,1.1-1.2,1.4c-0.5,0.3-1.1,0.5-1.8,0.5
				S5.8,15,5.3,14.6c-0.5-0.3-0.9-0.8-1.2-1.4c-0.3-0.6-0.4-1.3-0.4-2.2c0-0.8,0.1-1.5,0.4-2.1c0.3-0.6,0.7-1.1,1.2-1.4S6.4,7,7.1,7
				C8.2,7.1,9,7.5,9.6,8.2z M5.9,9.1c-0.3,0.4-0.4,1.1-0.4,2s0.1,1.6,0.4,2s0.6,0.6,1.2,0.6c0.5,0,0.9-0.2,1.2-0.6
				C8.6,12.7,8.7,12,8.7,11S8.6,9.4,8.3,9S7.6,8.4,7.1,8.4S6.2,8.6,5.9,9.1z"/>
			<path class="st4" d="M13.4,14.9h-1.8V7.3h1.8V14.9z M15.4,10.7l2.6,4.2h-2.1l-2.4-4.1l2.4-3.6h1.9L15.4,10.7z"/>
		</g>
	</g>
	<g id="Layer_1_copy_3" class="st0">
		<g class="st2">
			<circle class="st3" cx="11" cy="11" r="10.5"/>
			<path class="st6" d="M11,1c5.5,0,10,4.5,10,10s-4.5,10-10,10S1,16.5,1,11S5.5,1,11,1 M11,0C4.9,0,0,4.9,0,11s4.9,11,11,11
				s11-4.9,11-11S17.1,0,11,0L11,0z"/>
		</g>
	</g>
	<g id="Layer_1_copy_2" class="st0">
		<g class="st5">
			<circle class="st3" cx="11" cy="11" r="9.5"/>
			<path class="st6" d="M11,2c5,0,9,4,9,9s-4,9-9,9s-9-4-9-9S6,2,11,2 M11,1C5.5,1,1,5.5,1,11s4.5,10,10,10s10-4.5,10-10
				S16.5,1,11,1L11,1z"/>
		</g>
	</g>
	<g id="Layer_5" class="st0">
		<g class="st2">
			<path class="st6" d="M12,15.1c0.3,0.3,0.5,0.7,0.5,1.1c0,0.5-0.2,0.8-0.5,1.2c-0.3,0.3-0.7,0.5-1.2,0.5c-0.4,0-0.8-0.2-1.1-0.5
				s-0.5-0.7-0.5-1.2c0-0.4,0.2-0.8,0.5-1.1s0.7-0.5,1.1-0.5C11.3,14.6,11.7,14.8,12,15.1z M12,13H9.7L9.3,5h3L12,13z"/>
		</g>
	</g>
	<g id="Layer_8">
		<g>
			<path class="st7" d="M11.2,3.2c3,0,5.5,2.5,5.5,5.5v5c0,3-2.5,5.5-5.5,5.5s-5.5-2.5-5.5-5.5v-5C5.7,5.7,8.2,3.2,11.2,3.2
				 M11.2,2.2L11.2,2.2c-3.6,0-6.5,2.9-6.5,6.5v5c0,3.6,2.9,6.5,6.5,6.5l0,0c3.6,0,6.5-2.9,6.5-6.5v-5C17.7,5.1,14.8,2.2,11.2,2.2
				L11.2,2.2z"/>
		</g>
		<g class="st8">
			<path class="st9" d="M11.2,20.2L11.2,20.2c-3.6,0-6.5-2.9-6.5-6.5v-5c0-3.6,2.9-6.5,6.5-6.5l0,0c3.6,0,6.5,2.9,6.5,6.5v5
				C17.7,17.3,14.8,20.2,11.2,20.2z"/>
		</g>
	</g>
	<rect x="4.1" y="9.8" transform="matrix(-0.866 0.5 -0.5 -0.866 29.2753 14.1557)" class="st10" width="17.3" height="2.4"/>
	<path class="st11" d="M8.6,15.4c0,1.7-1.5,3.1-3.3,3.1c-1.2,0-5.1,0-4.3-0.5c0.3-0.2,0.9-2,0.9-2.6c0-1.7,1.5-3.1,3.3-3.1
		S8.6,13.7,8.6,15.4z"/>
	<path class="st12" d="M0.8,18.4c0,0,1,0.2,2.8,0.3c3.2,0.3,5.1-1.9,5.1-1.9s0.6-0.2,0.4-2.1c-0.1-0.9-1.6-1.3-2.4,0.4
		c-0.1,0.3-2.2,2.1-3.4,1.6c-0.7-0.3,0.6-3.3,0.6-3.3s0.2-1.5-1.3-0.1c-1.3,1.2-1.8,4.3-2,4.6C0.3,18.2,0.8,18.4,0.8,18.4z"/>
</g>
<g id="Layer_2" class="st0">
</g>
<g id="Layer_3_1_">
</g>
</svg>
