<?xml version="1.0" encoding="utf-8"?>
<!-- Generator: Adobe Illustrator 22.1.0, SVG Export Plug-In . SVG Version: 6.00 Build 0)  -->
<svg version="1.1" xmlns="http://www.w3.org/2000/svg" xmlns:xlink="http://www.w3.org/1999/xlink" x="0px" y="0px"
	 viewBox="0 0 22 22" style="enable-background:new 0 0 22 22;" xml:space="preserve">
<style type="text/css">
	.st0{opacity:0.25;fill:#FFFFFF;}
	.st1{display:none;}
	.st2{display:inline;}
	.st3{fill:#FFFFFF;}
	.st4{fill:#006837;}
	.st5{display:inline;opacity:0.5;}
	.st6{fill:#FBB03B;}
	.st7{opacity:0.5;}
</style>
<g id="Layer_4">
	<circle class="st0" cx="11" cy="11" r="9"/>
</g>
<g id="Layer_1" class="st1">
	<g class="st2">
		<circle class="st3" cx="11" cy="11" r="10.5"/>
		<path class="st4" d="M11,1c5.5,0,10,4.5,10,10s-4.5,10-10,10S1,16.5,1,11S5.5,1,11,1 M11,0C4.9,0,0,4.9,0,11s4.9,11,11,11
			s11-4.9,11-11S17.1,0,11,0L11,0z"/>
	</g>
</g>
<g id="Layer_1_copy" class="st1">
	<g class="st5">
		<circle class="st3" cx="11" cy="11" r="9.5"/>
		<path class="st4" d="M11,2c5,0,9,4,9,9s-4,9-9,9s-9-4-9-9S6,2,11,2 M11,1C5.5,1,1,5.5,1,11s4.5,10,10,10s10-4.5,10-10S16.5,1,11,1
			L11,1z"/>
	</g>
</g>
<g id="Layer_3" class="st1">
	<g class="st2">
		<path class="st4" d="M9.6,8.2c0.6,0.7,0.9,1.7,0.9,2.9c0,0.8-0.1,1.5-0.4,2.1c-0.3,0.6-0.7,1.1-1.2,1.4c-0.5,0.3-1.1,0.5-1.8,0.5
			S5.8,15,5.3,14.6c-0.5-0.3-0.9-0.8-1.2-1.4c-0.3-0.6-0.4-1.3-0.4-2.2c0-0.8,0.1-1.5,0.4-2.1c0.3-0.6,0.7-1.1,1.2-1.4
			c0.5-0.3,1.1-0.5,1.8-0.5C8.2,7.1,9,7.5,9.6,8.2z M5.9,9.1c-0.3,0.4-0.4,1.1-0.4,2c0,0.9,0.1,1.6,0.4,2c0.3,0.4,0.6,0.6,1.2,0.6
			c0.5,0,0.9-0.2,1.2-0.6c0.3-0.4,0.4-1.1,0.4-2.1s-0.1-1.6-0.4-2S7.6,8.4,7.1,8.4C6.6,8.4,6.2,8.6,5.9,9.1z"/>
		<path class="st4" d="M13.4,14.9h-1.8V7.3h1.8V14.9z M15.4,10.7l2.6,4.2h-2.1l-2.4-4.1l2.4-3.6h1.9L15.4,10.7z"/>
	</g>
</g>
<g id="Layer_1_copy_3">
	<g>
		<circle class="st3" cx="11" cy="11" r="10.5"/>
		<path class="st6" d="M11,1c5.5,0,10,4.5,10,10s-4.5,10-10,10S1,16.5,1,11S5.5,1,11,1 M11,0C4.9,0,0,4.9,0,11s4.9,11,11,11
			s11-4.9,11-11S17.1,0,11,0L11,0z"/>
	</g>
</g>
<g id="Layer_1_copy_2">
	<g class="st7">
		<circle class="st3" cx="11" cy="11" r="9.5"/>
		<path class="st6" d="M11,2c5,0,9,4,9,9s-4,9-9,9s-9-4-9-9S6,2,11,2 M11,1C5.5,1,1,5.5,1,11s4.5,10,10,10s10-4.5,10-10S16.5,1,11,1
			L11,1z"/>
	</g>
</g>
<g id="Layer_5">
	<g>
		<path class="st6" d="M12,15.1c0.3,0.3,0.5,0.7,0.5,1.1c0,0.5-0.2,0.8-0.5,1.2c-0.3,0.3-0.7,0.5-1.2,0.5c-0.4,0-0.8-0.2-1.1-0.5
			s-0.5-0.7-0.5-1.2c0-0.4,0.2-0.8,0.5-1.1c0.3-0.3,0.7-0.5,1.1-0.5C11.3,14.6,11.7,14.8,12,15.1z M12,13H9.7L9.3,5h3L12,13z"/>
	</g>
	<g>
	</g>
	<g>
	</g>
	<g>
	</g>
	<g>
	</g>
	<g>
	</g>
	<g>
	</g>
	<g>
	</g>
	<g>
	</g>
	<g>
	</g>
	<g>
	</g>
	<g>
	</g>
	<g>
	</g>
	<g>
	</g>
	<g>
	</g>
	<g>
	</g>
</g>
</svg>
